<svg width="18" height="13" viewBox="0 0 18 13" fill="none" xmlns="http://www.w3.org/2000/svg">
<path d="M1.75 2.5H16.75C17.44 2.5 18 1.94 18 1.25C18 0.56 17.44 0 16.75 0H1.75C1.06 0 0.5 0.56 0.5 1.25C0.5 1.94 1.06 2.5 1.75 2.5ZM16.75 5H1.75C1.06 5 0.5 5.56 0.5 6.25C0.5 6.94 1.06 7.5 1.75 7.5H16.75C17.44 7.5 18 6.94 18 6.25C18 5.56 17.44 5 16.75 5ZM16.75 10H1.75C1.06 10 0.5 10.56 0.5 11.25C0.5 11.94 1.06 12.5 1.75 12.5H16.75C17.44 12.5 18 11.94 18 11.25C18 10.56 17.44 10 16.75 10Z" fill="white"/>
</svg>
